<?xml version="1.0" standalone="no"?>
<!DOCTYPE svg PUBLIC "-//W3C//DTD SVG 20010904//EN"
 "http://www.w3.org/TR/2001/REC-SVG-20010904/DTD/svg10.dtd">
<svg version="1.0" xmlns="http://www.w3.org/2000/svg"
 width="512.000000pt" height="512.000000pt" viewBox="0 0 512.000000 512.000000"
 preserveAspectRatio="xMidYMid meet">
<metadata>
Created by potrace 1.14, written by Peter Selinger 2001-2017
</metadata>
<g transform="translate(0.000000,512.000000) scale(0.100000,-0.100000)"
fill="#000000" stroke="none">
<path d="M0 2560 l0 -2560 2560 0 2560 0 0 2560 0 2560 -2560 0 -2560 0 0
-2560z m4480 1600 l0 -320 -1920 0 -1920 0 0 320 0 320 1920 0 1920 0 0 -320z
m0 -960 l0 -320 -1920 0 -1920 0 0 320 0 320 1920 0 1920 0 0 -320z m-3120
-1600 l0 -960 -360 0 -360 0 0 960 0 960 360 0 360 0 0 -960z m1040 0 l0 -960
-360 0 -360 0 0 960 0 960 360 0 360 0 0 -960z m1040 0 l0 -960 -360 0 -360 0
0 960 0 960 360 0 360 0 0 -960z m1040 0 l0 -960 -360 0 -360 0 0 960 0 960
360 0 360 0 0 -960z"/>
</g>
</svg>
