<svg width="48" height="48" viewBox="0 0 48 48" fill="none" xmlns="http://www.w3.org/2000/svg">
<path d="M17.3787 40.5H9C8.60218 40.5 8.22064 40.342 7.93934 40.0607C7.65804 39.7794 7.5 39.3978 7.5 39V30.6213C7.5 30.4244 7.5388 30.2293 7.61418 30.0473C7.68956 29.8653 7.80005 29.7 7.93934 29.5607L30.4393 7.06068C30.7206 6.77937 31.1022 6.62134 31.5 6.62134C31.8978 6.62134 32.2794 6.77937 32.5607 7.06068L40.9393 15.4394C41.2206 15.7207 41.3787 16.1022 41.3787 16.5C41.3787 16.8978 41.2206 17.2794 40.9393 17.5607L18.4393 40.0607C18.3001 40.2 18.1347 40.3105 17.9527 40.3858C17.7707 40.4612 17.5757 40.5 17.3787 40.5Z" stroke="white" stroke-width="2" stroke-linecap="round" stroke-linejoin="round"/>
<path d="M25.5 12L36 22.5" stroke="white" stroke-width="2" stroke-linecap="round" stroke-linejoin="round"/>
<path d="M17.904 40.4042L7.59521 30.0955" stroke="white" stroke-width="2" stroke-linecap="round" stroke-linejoin="round"/>
</svg>
