<svg width="256" height="256" viewBox="0 0 256 256" fill="none" xmlns="http://www.w3.org/2000/svg">
<path d="M186.255 138.117V117.884L171.141 128L186.255 138.117ZM198.353 149.438C198.351 149.701 198.332 149.964 198.296 150.225L198.249 150.491L198.144 150.993L198.05 151.287C198.004 151.438 197.951 151.587 197.888 151.733L197.756 152.017C197.694 152.155 197.627 152.291 197.557 152.425L197.376 152.709C197.16 153.053 196.906 153.371 196.618 153.657L196.371 153.894C196.261 153.994 196.147 154.088 196.03 154.179L195.755 154.387L195.66 154.463L131.357 197.339C130.363 198.003 129.195 198.357 128 198.357C126.805 198.357 125.637 198.003 124.644 197.339L60.3406 154.454L60.2458 154.378C60.0292 154.228 59.8232 154.063 59.6295 153.885L59.383 153.648L59.0795 153.325L58.8804 153.06C58.6311 152.737 58.4181 152.387 58.2452 152.017L58.1124 151.723C58.053 151.577 57.9992 151.428 57.9512 151.277L57.8564 150.993C57.8185 150.822 57.7806 150.652 57.7616 150.481L57.7047 150.216C57.6684 149.955 57.6494 149.692 57.6478 149.429V106.563C57.6479 106.299 57.6669 106.036 57.7047 105.776L57.7521 105.52L57.8564 105.008L57.9512 104.723C58.1761 103.963 58.5644 103.261 59.089 102.666L59.383 102.344L59.6295 102.107C59.8236 101.929 60.0295 101.764 60.2458 101.613L60.3406 101.538L124.644 58.6718C125.638 58.009 126.806 57.6552 128 57.6552C129.195 57.6552 130.363 58.009 131.357 58.6718L195.66 101.538L195.755 101.613L196.04 101.822L196.371 102.107C196.466 102.182 196.533 102.258 196.618 102.344C196.907 102.629 197.162 102.947 197.376 103.292L197.557 103.576C197.628 103.709 197.694 103.845 197.756 103.984L197.888 104.268C197.955 104.42 198.002 104.572 198.05 104.714L198.144 105.008C198.182 105.179 198.22 105.349 198.239 105.52L198.296 105.776C198.333 106.037 198.352 106.3 198.353 106.563V149.438ZM128 14.2227C65.1667 14.2227 14.2227 65.1572 14.2227 128C14.2227 190.834 65.1667 241.778 128 241.778C190.844 241.778 241.778 190.844 241.778 128C241.778 65.1667 190.844 14.2227 128 14.2227ZM128 113.702L106.62 128L128 142.317L149.381 128L128 113.702ZM134.05 152.804V181.011L181.419 149.438L160.256 135.282L134.05 152.804ZM74.5818 149.429L121.951 181.002V152.804L95.7444 135.273L74.5818 149.429ZM181.419 106.572L134.05 74.999V103.197L160.256 120.738L181.419 106.572ZM121.951 103.197V74.999L74.5818 106.572L95.7444 120.728L121.951 103.197ZM69.7462 117.884V138.117L84.8597 128L69.7462 117.884Z" fill="black"/>
</svg>
