<svg width="256" height="256" viewBox="0 0 256 256" fill="none" xmlns="http://www.w3.org/2000/svg">
<path fill-rule="evenodd" clip-rule="evenodd" d="M128 241.778C190.838 241.778 241.778 190.838 241.778 128C241.778 65.1627 190.838 14.2227 128 14.2227C65.1627 14.2227 14.2227 65.1627 14.2227 128C14.2227 190.838 65.1627 241.778 128 241.778ZM56.8893 128C56.8893 167.2 88.8004 199.112 128 199.112C167.2 199.112 199.112 167.2 199.112 128C199.112 88.8004 167.2 56.8893 128 56.8893C88.8004 56.8893 56.8893 88.8004 56.8893 128ZM150.14 135.135C169.186 132.083 185.897 137.079 187.971 137.731H187.989C186.654 145.934 183.655 153.778 179.176 160.78C174.697 167.781 168.833 173.792 161.944 178.442C161.322 174.744 158.08 156.966 150.14 135.135ZM138.756 137.956C147.289 160.107 150.827 178.667 151.734 184L151.698 184.012C144.409 187.117 136.409 188.836 127.995 188.836C114.482 188.861 101.353 184.34 90.7204 176C91.7871 173.778 104.054 150.015 138.365 138.075L138.756 137.956ZM132.249 128.623C100.919 138.756 84.2493 166.341 82.8745 168.712L82.8804 168.694C73.1856 157.92 67.2715 143.675 67.2715 128.072L67.2952 126.223C69.9619 126.282 99.3782 126.667 129.719 117.6C131.449 120.996 133.109 124.445 134.649 127.912C133.849 128.125 133.049 128.356 132.249 128.623ZM124.694 108.249C96.2849 115.799 71.2597 115.692 68.5338 115.645L68.5397 115.609C70.4853 106.411 74.5345 97.7883 80.3701 90.4167C86.2056 83.0451 93.669 77.1251 102.175 73.1204C110.306 84.4177 117.823 96.1442 124.694 108.249ZM136.427 104.605C126.489 86.3175 115.449 71.3012 113.778 69.0493V69.0315C118.341 67.9352 123.112 67.3427 128 67.3427C142.85 67.3258 157.186 72.7815 168.267 82.6671C167.183 84.2197 158.027 96.516 136.427 104.605ZM141.103 113.63C163.556 104.463 173.731 91.4078 175.023 89.6893L175.058 89.7249C183.532 100.036 188.629 113.192 188.747 127.532C186.732 127.117 166.643 123.029 146.436 125.577C146.316 125.286 146.197 124.991 146.076 124.692C145.777 123.954 145.47 123.195 145.132 122.436C143.888 119.467 142.525 116.534 141.103 113.63Z" fill="black"/>
</svg>
