<svg width="256" height="256" viewBox="0 0 256 256" fill="none" xmlns="http://www.w3.org/2000/svg">
<path fill-rule="evenodd" clip-rule="evenodd" d="M128 241.778C190.838 241.778 241.778 190.838 241.778 128C241.778 65.1627 190.838 14.2227 128 14.2227C65.1627 14.2227 14.2227 65.1627 14.2227 128C14.2227 190.838 65.1627 241.778 128 241.778ZM167.147 195.621H195.579L195.587 145.333C195.587 120.653 190.259 101.693 161.451 101.693C147.587 101.693 138.307 109.293 134.491 116.493H134.123V104.005H106.811V195.621H135.243V150.285C135.243 138.333 137.507 126.773 152.331 126.773C166.931 126.773 167.147 140.445 167.147 151.069V195.621ZM68.3781 90.2132C70.382 91.0432 72.5299 91.4699 74.6989 91.4689C77.9647 91.4705 81.1576 90.5036 83.8738 88.6906C86.5901 86.8775 88.7077 84.2997 89.9589 81.2831C91.2101 78.2666 91.5387 74.9467 90.9032 71.7434C90.2676 68.5401 88.6964 65.5972 86.3883 63.2868C84.0802 60.9764 81.1388 59.4024 77.9361 58.7637C74.7334 58.125 71.4132 58.4504 68.3954 59.6987C65.3776 60.947 62.7978 63.0622 60.9821 65.7767C59.1664 68.4912 58.1965 71.6831 58.1949 74.9489C58.1917 77.1179 58.6164 79.2662 59.4444 81.2708C60.2725 83.2755 61.4878 85.0972 63.0208 86.6317C64.5537 88.1661 66.3743 89.3832 68.3781 90.2132ZM60.4429 104.005V195.621H88.9549V104.005H60.4429Z" fill="black"/>
</svg>
