<svg width="256" height="256" viewBox="0 0 256 256" fill="none" xmlns="http://www.w3.org/2000/svg">
<path d="M112 60C112 56.8355 112.938 53.7421 114.696 51.1109C116.455 48.4797 118.953 46.4289 121.877 45.2179C124.801 44.0069 128.018 43.6901 131.121 44.3074C134.225 44.9248 137.076 46.4487 139.314 48.6863C141.551 50.9239 143.075 53.7749 143.693 56.8786C144.31 59.9823 143.993 63.1993 142.782 66.1229C141.571 69.0466 139.52 71.5454 136.889 73.3035C134.258 75.0616 131.165 76 128 76C123.757 76 119.687 74.3143 116.686 71.3137C113.686 68.3131 112 64.2435 112 60ZM128 112C124.836 112 121.742 112.938 119.111 114.696C116.48 116.455 114.429 118.953 113.218 121.877C112.007 124.801 111.69 128.018 112.307 131.121C112.925 134.225 114.449 137.076 116.686 139.314C118.924 141.551 121.775 143.075 124.879 143.693C127.982 144.31 131.199 143.993 134.123 142.782C137.047 141.571 139.545 139.52 141.304 136.889C143.062 134.258 144 131.165 144 128C144 123.757 142.314 119.687 139.314 116.686C136.313 113.686 132.243 112 128 112ZM128 180C124.836 180 121.742 180.938 119.111 182.697C116.48 184.455 114.429 186.953 113.218 189.877C112.007 192.801 111.69 196.018 112.307 199.121C112.925 202.225 114.449 205.076 116.686 207.314C118.924 209.551 121.775 211.075 124.879 211.693C127.982 212.31 131.199 211.993 134.123 210.782C137.047 209.571 139.545 207.52 141.304 204.889C143.062 202.258 144 199.165 144 196C144 191.757 142.314 187.687 139.314 184.686C136.313 181.686 132.243 180 128 180Z" fill="black"/>
</svg>
