<svg width="256" height="256" viewBox="0 0 256 256" fill="none" xmlns="http://www.w3.org/2000/svg">
<path d="M156.001 228.001C156.001 231.183 154.737 234.236 152.487 236.486C150.236 238.737 147.184 240.001 144.001 240.001H112.001C108.819 240.001 105.767 238.737 103.516 236.486C101.266 234.236 100.001 231.183 100.001 228.001C100.001 224.818 101.266 221.766 103.516 219.516C105.767 217.265 108.819 216.001 112.001 216.001H144.001C147.184 216.001 150.236 217.265 152.487 219.516C154.737 221.766 156.001 224.818 156.001 228.001ZM128.001 116.001C131.166 116.001 134.259 115.062 136.891 113.304C139.522 111.546 141.572 109.047 142.783 106.124C143.994 103.2 144.311 99.9831 143.694 96.8794C143.077 93.7757 141.553 90.9248 139.315 88.6871C137.077 86.4495 134.227 84.9256 131.123 84.3083C128.019 83.6909 124.802 84.0077 121.878 85.2188C118.955 86.4298 116.456 88.4805 114.698 91.1117C112.94 93.7429 112.001 96.8363 112.001 100.001C112.001 104.244 113.687 108.314 116.688 111.315C119.688 114.315 123.758 116.001 128.001 116.001ZM227.531 156.701L215.171 212.331C214.444 215.651 212.878 218.73 210.624 221.273C208.369 223.817 205.5 225.74 202.291 226.861C200.142 227.616 197.88 228.002 195.601 228.001C191.142 227.997 186.813 226.493 183.311 223.731L157.171 204.001H98.8314L72.6914 223.741C69.1887 226.499 64.86 228 60.4014 228.001C58.1224 227.998 55.8604 227.61 53.7114 226.851C50.5023 225.731 47.6337 223.807 45.379 221.263C43.1243 218.72 41.5587 215.641 40.8314 212.321L28.4714 156.701C27.8161 153.716 27.8501 150.62 28.571 147.65C29.2918 144.68 30.6805 141.913 32.6314 139.561L60.4614 106.161C61.5261 93.6466 64.4411 81.3596 69.1114 69.7008C82.3814 36.4508 106.111 15.6008 115.751 8.18082C119.257 5.46437 123.566 3.99023 128.001 3.99023C132.436 3.99023 136.746 5.46437 140.251 8.18082C149.851 15.6008 173.621 36.4508 186.891 69.7008C191.562 81.3596 194.477 93.6466 195.541 106.161L223.371 139.561C225.322 141.913 226.711 144.68 227.432 147.65C228.153 150.62 228.187 153.716 227.531 156.701ZM101.791 180.001H154.211C173.721 144.301 177.211 110.221 164.601 78.6008C154.401 53.0008 136.201 35.9008 128.001 29.1208C119.801 35.9008 101.601 53.0008 91.4014 78.6008C78.7814 110.221 82.2814 144.301 101.791 180.001ZM79.2414 188.721C71.2627 173.891 65.5589 157.946 62.3214 141.421L52.3214 153.421L62.9014 201.061L79.2414 188.721ZM203.671 153.411L193.671 141.411C190.434 157.936 184.73 173.881 176.751 188.711L193.081 201.041L203.671 153.411Z" fill="black"/>
</svg>
