<svg width="256" height="256" viewBox="0 0 256 256" fill="none" xmlns="http://www.w3.org/2000/svg">
<path d="M168.49 104.49L145 128L168.52 151.51C170.774 153.764 172.041 156.822 172.041 160.01C172.041 163.198 170.774 166.256 168.52 168.51C166.266 170.764 163.208 172.031 160.02 172.031C156.832 172.031 153.774 170.764 151.52 168.51L128 145L104.49 168.52C102.236 170.774 99.1782 172.041 95.99 172.041C92.8019 172.041 89.7444 170.774 87.49 168.52C85.2357 166.266 83.9692 163.208 83.9692 160.02C83.9692 156.832 85.2357 153.774 87.49 151.52L111 128L87.51 104.49C86.3938 103.374 85.5084 102.049 84.9043 100.59C84.3002 99.1317 83.9892 97.5686 83.9892 95.99C83.9892 92.8019 85.2557 89.7443 87.51 87.49C89.7644 85.2357 92.8219 83.9692 96.01 83.9692C99.1982 83.9692 102.256 85.2357 104.51 87.49L128 111L151.51 87.48C153.764 85.2257 156.822 83.9592 160.01 83.9592C163.198 83.9592 166.256 85.2257 168.51 87.48C170.764 89.7343 172.031 92.7919 172.031 95.98C172.031 99.1681 170.764 102.226 168.51 104.48L168.49 104.49ZM236 128C236 149.36 229.666 170.241 217.799 188.002C205.932 205.762 189.064 219.605 169.33 227.779C149.595 235.953 127.88 238.092 106.93 233.925C85.9803 229.758 66.7366 219.472 51.6325 204.368C36.5284 189.263 26.2424 170.02 22.0752 149.07C17.908 128.12 20.0468 106.405 28.2211 86.6702C36.3953 66.9358 50.238 50.0685 67.9985 38.2013C85.759 26.3341 106.64 20 128 20C156.634 20.0318 184.085 31.4205 204.333 51.6675C224.58 71.9146 235.968 99.3664 236 128ZM212 128C212 111.386 207.074 95.1458 197.843 81.3321C188.613 67.5184 175.494 56.7519 160.145 50.3941C144.796 44.0364 127.907 42.3729 111.612 45.614C95.3181 48.8552 80.3507 56.8554 68.6031 68.603C56.8555 80.3506 48.8552 95.318 45.6141 111.612C42.3729 127.907 44.0364 144.796 50.3942 160.145C56.7519 175.494 67.5184 188.613 81.3321 197.843C95.1459 207.073 111.386 212 128 212C150.271 211.976 171.623 203.119 187.371 187.371C203.119 171.623 211.976 150.271 212 128Z" fill="black"/>
</svg>
