<svg width="48" height="48" viewBox="0 0 48 48" fill="none" xmlns="http://www.w3.org/2000/svg">
<path d="M24 24L42 6" stroke="white" stroke-width="2" stroke-linecap="round" stroke-linejoin="round"/>
<path d="M36.7276 11.2721C33.5391 8.08983 29.2723 6.22026 24.7714 6.03322C20.2705 5.84618 15.8633 7.35529 12.4218 10.262C8.98026 13.1687 6.75504 17.2612 6.18638 21.73C5.61772 26.1988 6.74705 30.7182 9.35093 34.3942C11.9548 38.0702 15.8436 40.635 20.2479 41.5811C24.6522 42.5273 29.2512 41.7859 33.1351 39.5037C37.019 37.2214 39.9048 33.5645 41.2216 29.2565C42.5384 24.9485 42.1904 20.3031 40.2463 16.2394" stroke="white" stroke-width="2" stroke-linecap="round" stroke-linejoin="round"/>
<path d="M30.3639 17.6361C28.876 16.1482 26.9138 15.2288 24.8183 15.0375C22.7228 14.8463 20.6265 15.3953 18.8938 16.5892C17.1611 17.7832 15.9015 19.5465 15.334 21.5727C14.7665 23.599 14.9269 25.76 15.7873 27.6802C16.6478 29.6005 18.1539 31.1585 20.0439 32.0835C21.9339 33.0086 24.0882 33.2421 26.1325 32.7436C28.1768 32.2451 29.9818 31.046 31.2338 29.3547C32.4857 27.6635 33.1055 25.587 32.9854 23.4863" stroke="white" stroke-width="2" stroke-linecap="round" stroke-linejoin="round"/>
</svg>
